<?xml version="1.0" encoding="UTF-8" standalone="no"?><!DOCTYPE svg PUBLIC "-//W3C//DTD SVG 1.1//EN" "http://www.w3.org/Graphics/SVG/1.1/DTD/svg11.dtd"><svg width="100%" height="100%" viewBox="0 0 1400 256" version="1.1" xmlns="http://www.w3.org/2000/svg" xmlns:xlink="http://www.w3.org/1999/xlink" xml:space="preserve" xmlns:serif="http://www.serif.com/" style="fill-rule:evenodd;clip-rule:evenodd;stroke-linejoin:round;stroke-miterlimit:2;"><g><path id="path1" d="M37.52,170.66l45.03,45.03l-37.92,37.92l-45.03,-45.03l37.92,-37.92Zm48.98,-115.34l112.18,112.18l-5.53,5.53c-25.28,25.28 -56.88,38.71 -85.32,37.92l-64.78,-64.78c-0.79,-27.65 12.64,-60.04 37.92,-85.32l5.53,-5.53Zm93.22,-52.93l15.8,15.8l-37.13,37.13l38.71,38.71l39.5,-37.92l15.8,15.8l-38.71,38.71l29.23,29.23l-20.54,20.54l-130.35,-130.35l20.54,-20.54l30.02,30.02l37.13,-37.13Z" style="fill:#fff;fill-rule:nonzero;"/><g transform="matrix(288,0,0,288,1207.6,229.102)"></g><text x="286px" y="229.102px" style="font-family:'MonoLisa-Bold', 'MonoLisa', monospace;font-weight:700;font-size:288px;fill:#fff;">AMPED</text></g></svg>