<?xml version="1.0" encoding="utf-8"?>
<svg xmlns="http://www.w3.org/2000/svg" height="16" width="16" viewBox="0 0 16 16">
  <g>
    <path id="path1" transform="rotate(0,8,8) translate(1.6,1.64000015258789) scale(0.4,0.4)  " fill="#B73DA9" d="M4.8000031,21.300001L10.5,26.999998 5.7000122,31.799999 0,26.100004z M11,6.7000115L25.200012,20.900007 24.5,21.600004C21.300003,24.800001,17.300003,26.499998,13.700012,26.400007L5.5,18.20001C5.4000092,14.700011,7.1000061,10.600005,10.300003,7.4000085z M22.800003,0L24.800003,2 20.100006,6.7000115 25,11.600005 30,6.8000024 32,8.8000019 27.100006,13.700011 30.800003,17.400007 28.200012,19.999998 11.700012,3.5 14.300003,0.90000917 18.100006,4.700012z" />
  </g>
</svg>

