<?xml version="1.0" encoding="utf-8"?>
<svg xmlns="http://www.w3.org/2000/svg" height="128" width="128" viewBox="0 0 128 128">
  <g>
    <ellipse cy="64" cx="64" ry="64" rx="64" fill="#3992FB" />
    <path id="path1" transform="rotate(0,64,64) translate(38.0912644863129,15) scale(3.0625,3.0625)  " fill="#FFFFFF" d="M3.7291084,4.4169922L4.4881321,4.4169922C4.5291187,4.7999878,4.7151285,5.1609497,5.0421334,5.3989868L7.514218,7.1950073 6.5701915,10.100952C6.3811599,10.677979 6.5861827,11.307007 7.0771939,11.664978 7.3171908,11.838989 7.6022025,11.932007 7.8982011,11.932007 8.1952363,11.932007 8.4782344,11.838989 8.7212526,11.664001L11.1923,9.8670044 13.420359,11.485962 13.420359,32 6.6041886,24.33197 0,32 0,8.1439819C-1.1625525E-07,6.0869751,1.669053,4.4169922,3.7291084,4.4169922z M11.1923,0C11.365309,0,11.516314,0.11096191,11.571308,0.27398682L12.740347,3.8699951 16.520452,3.8699951C16.693462,3.8699951 16.84648,3.9819946 16.900468,4.1469727 16.953477,4.3109741 16.89647,4.4920044 16.754466,4.59198L13.695391,6.8150024 14.865406,10.41095C14.918417,10.573975 14.861408,10.755005 14.72142,10.855957 14.650404,10.908997 14.567394,10.932983 14.485391,10.932983 14.403388,10.932983 14.322392,10.908997 14.250399,10.855957L11.1923,8.6349487 8.1342307,10.855957C8.0632144,10.908997 7.9812108,10.932983 7.8982011,10.932983 7.8172051,10.932983 7.7332183,10.908997 7.6632091,10.855957 7.5231901,10.755005 7.4641982,10.573975 7.5182158,10.41095L8.6882316,6.8150024 5.6281482,4.59198C5.4881602,4.4920044 5.4301449,4.3109741 5.4831554,4.1469727 5.5381495,3.9819946 5.6901618,3.8699951 5.8631707,3.8699951L9.6432754,3.8699951 10.812284,0.27398682C10.866302,0.11096191,11.018314,0,11.1923,0z" />
  </g>
</svg>

